<?xml version="1.0" standalone="no"?>
<!DOCTYPE svg PUBLIC "-//W3C//DTD SVG 20010904//EN"
 "http://www.w3.org/TR/2001/REC-SVG-20010904/DTD/svg10.dtd">
<svg version="1.0" xmlns="http://www.w3.org/2000/svg"
 width="485.000000pt" height="87.000000pt" viewBox="0 0 485.000000 87.000000"
 preserveAspectRatio="xMidYMid meet">

<g transform="translate(0.000000,87.000000) scale(0.100000,-0.100000)"
fill="#000000" stroke="none">
<path d="M3999 825 c-112 -41 -204 -120 -245 -210 -109 -238 13 -505 261 -570
165 -43 774 -40 818 5 17 16 -102 31 -295 37 l-197 6 32 26 c49 38 97 101 125
167 22 49 26 74 26 149 -1 107 -24 178 -84 253 -80 100 -189 152 -320 151 -47
0 -101 -6 -121 -14z m245 -65 c62 -24 136 -85 174 -144 24 -37 26 -51 27 -136
0 -84 -3 -102 -28 -155 -64 -137 -187 -215 -342 -215 -87 0 -154 29 -209 90
-105 116 -123 291 -42 418 35 56 110 118 170 141 70 27 178 27 250 1z"/>
<path d="M3290 410 l0 -330 65 0 65 0 0 330 0 330 -65 0 -65 0 0 -330z"/>
<path d="M3540 710 c-25 -25 -26 -72 -2 -93 25 -23 85 -22 105 1 25 27 22 78
-5 96 -31 22 -74 20 -98 -4z"/>
<path d="M1770 605 l0 -55 -35 0 -35 0 0 -50 0 -50 35 0 35 0 0 -139 c0 -149
9 -191 44 -215 31 -20 89 -30 131 -22 34 7 35 8 35 56 0 46 -2 50 -24 50 -55
0 -56 2 -56 141 l0 129 41 0 40 0 -3 48 c-3 47 -3 47 -40 50 l-38 3 0 55 0 54
-65 0 -65 0 0 -55z"/>
<path d="M236 548 c-22 -4 -47 -15 -56 -23 -22 -20 -30 -19 -30 5 0 18 -7 20
-60 20 l-60 0 0 -235 0 -235 65 0 65 0 0 169 c0 164 1 170 22 185 24 17 65 21
86 8 23 -15 32 -76 32 -219 l0 -143 60 0 60 0 0 160 c0 157 1 161 25 185 29
30 75 33 98 7 14 -15 17 -47 19 -183 l3 -164 63 -3 62 -3 0 188 c0 169 -2 191
-20 220 -28 47 -61 65 -123 65 -55 1 -87 -11 -124 -44 -21 -20 -21 -20 -32 0
-18 35 -94 54 -155 40z"/>
<path d="M941 549 c-62 -12 -116 -53 -143 -108 -19 -38 -23 -62 -23 -137 0
-82 3 -94 27 -132 72 -109 253 -133 347 -47 l36 34 -34 35 -35 36 -22 -21
c-27 -25 -94 -36 -132 -20 -24 10 -62 56 -62 75 0 3 65 6 145 6 l145 0 0 53
c0 103 -34 173 -98 206 -48 23 -96 30 -151 20z m96 -121 c13 -12 23 -32 23
-45 0 -22 -3 -23 -80 -23 -44 0 -80 2 -80 5 0 15 32 65 47 74 29 17 65 12 90
-11z"/>
<path d="M1470 550 c-19 -3 -48 -14 -63 -25 -28 -18 -28 -18 -34 3 -5 19 -12
22 -64 22 l-59 0 0 -235 0 -235 65 0 65 0 0 164 0 165 26 20 c27 21 69 27 91
13 25 -16 33 -68 33 -213 l0 -149 66 0 66 0 -4 183 c-3 150 -7 189 -22 220
-27 56 -91 81 -166 67z"/>
<path d="M2181 549 c-105 -20 -171 -108 -171 -227 0 -89 17 -139 65 -188 97
-101 283 -75 346 48 42 82 35 212 -16 289 -40 62 -134 94 -224 78z m91 -110
c50 -27 66 -160 25 -220 -20 -30 -28 -34 -67 -34 -39 0 -47 4 -67 34 -41 61
-27 190 24 220 24 14 59 14 85 0z"/>
<path d="M2716 549 c-15 -4 -36 -15 -46 -24 -17 -15 -19 -15 -25 4 -5 18 -14
21 -66 21 l-59 0 0 -235 0 -235 65 0 65 0 0 153 c0 179 4 186 90 195 l50 5 0
57 c0 52 -2 58 -23 62 -12 2 -35 1 -51 -3z"/>
<path d="M2981 549 c-110 -21 -165 -99 -165 -234 0 -133 51 -209 157 -236 116
-29 247 48 247 146 0 24 -3 25 -55 25 -50 0 -56 -2 -69 -29 -26 -49 -88 -57
-127 -15 -21 23 -24 35 -24 103 0 57 5 84 18 104 34 52 108 44 130 -13 11 -29
14 -30 71 -30 l59 0 -6 40 c-13 102 -115 161 -236 139z"/>
<path d="M3530 315 l0 -235 60 0 60 0 0 235 0 235 -60 0 -60 0 0 -235z"/>
</g>
</svg>
