<svg xmlns="http://www.w3.org/2000/svg" width="18.432" height="17.432" viewBox="0 0 18.432 17.432"><defs><style>.a,.b{fill:none;}.b{stroke:#212121;}.c,.d{stroke:none;}.d{fill:#212121;}</style></defs><g transform="translate(-288 -38)"><g class="a" transform="translate(288 38)"><path class="c" d="M8.249,0A8.249,8.249,0,1,1,0,8.249,8.249,8.249,0,0,1,8.249,0Z"/><path class="d" d="M 8.248666763305664 0.9999971389770508 C 4.251736640930176 0.9999971389770508 0.9999971389770508 4.251736640930176 0.9999971389770508 8.248666763305664 C 0.9999971389770508 12.24559688568115 4.251736640930176 15.49733638763428 8.248666763305664 15.49733638763428 C 12.24559688568115 15.49733638763428 15.49733638763428 12.24559688568115 15.49733638763428 8.248666763305664 C 15.49733638763428 4.251736640930176 12.24559688568115 0.9999971389770508 8.248666763305664 0.9999971389770508 M 8.248666763305664 -3.814697265625e-06 C 12.80427646636963 -3.814697265625e-06 16.49733734130859 3.693057060241699 16.49733734130859 8.248666763305664 C 16.49733734130859 12.80427646636963 12.80427646636963 16.49733734130859 8.248666763305664 16.49733734130859 C 3.693057060241699 16.49733734130859 -3.814697265625e-06 12.80427646636963 -3.814697265625e-06 8.248666763305664 C -3.814697265625e-06 3.693057060241699 3.693057060241699 -3.814697265625e-06 8.248666763305664 -3.814697265625e-06 Z"/></g><line class="b" x2="4" y2="4" transform="translate(302.079 51.079)"/></g></svg>