<svg width="20" height="20" viewBox="0 0 20 20" fill="none" xmlns="http://www.w3.org/2000/svg">
    <path d="M17.2683 10.6962L17.2365 10.9779L17.462 11.1498L19.3459 12.5862C19.3464 12.5866 19.3469 12.587 19.3475 12.5874C19.4247 12.648 19.4748 12.731 19.4927 12.8202C19.5104 12.909 19.4958 13.0016 19.4497 13.0825L17.4803 16.4042L17.4802 16.4041L17.4765 16.4107C17.4429 16.4692 17.3929 16.5197 17.3302 16.5555C17.2674 16.5913 17.1949 16.6106 17.1203 16.6104H17.1191C17.0655 16.6104 17.0127 16.6007 16.9634 16.5821C16.9629 16.5819 16.9624 16.5817 16.9619 16.5815L14.7316 15.71L14.4817 15.6124L14.2621 15.7666C13.8701 16.0421 13.4511 16.2797 13.0112 16.476L12.7602 16.588L12.7202 16.8599L12.3811 19.1652L12.3807 19.1676C12.3681 19.2563 12.3225 19.3403 12.2484 19.4026C12.174 19.4651 12.0765 19.5008 11.9738 19.5V19.5H11.9697L8.03333 19.5L8.02958 19.5C7.92636 19.5008 7.82835 19.4647 7.75375 19.4015C7.67948 19.3386 7.63397 19.2539 7.62185 19.1647L7.62188 19.1647L7.62105 19.1591L7.28193 16.8597L7.24183 16.5877L6.99072 16.4759C6.55021 16.2797 6.13134 16.0408 5.74041 15.7631L5.52007 15.6065L5.2684 15.7051L3.04123 16.5778C3.04122 16.5778 3.04122 16.5778 3.04121 16.5778C2.94607 16.6149 2.83953 16.6169 2.74282 16.583C2.64634 16.5493 2.56934 16.4835 2.52351 16.4018L2.52365 16.4018L2.51738 16.3912L0.555506 13.0869C0.555309 13.0865 0.555112 13.0862 0.554917 13.0859C0.507513 13.0044 0.491969 12.9107 0.509398 12.8208C0.526742 12.7314 0.576379 12.6479 0.653141 12.5866L2.53877 11.1528L2.76625 10.9798L2.73268 10.696C2.678 10.2338 2.678 9.76703 2.73268 9.30481L2.76619 9.02146L2.53929 8.84846L0.653935 7.41103C0.653611 7.41078 0.653286 7.41053 0.652963 7.41028C0.574661 7.34946 0.524117 7.26556 0.506761 7.17558C0.48937 7.08543 0.505654 6.99148 0.554435 6.91024L0.554442 6.91025L0.555874 6.90783L2.51768 3.59874C2.51778 3.59857 2.51788 3.59841 2.51798 3.59825C2.56687 3.51657 2.64581 3.4514 2.74335 3.41765C2.83995 3.38423 2.94594 3.38482 3.04199 3.41915L5.27011 4.29233L5.52022 4.39034L5.74001 4.2359C6.13183 3.96058 6.55068 3.72331 6.99055 3.52757L7.24187 3.41574L7.28195 3.1436L7.62194 0.834842L7.62194 0.834843L7.62236 0.831926C7.63485 0.743476 7.68037 0.659581 7.7543 0.597348C7.82856 0.534838 7.92591 0.49918 8.02838 0.500014V0.500031H8.03246L11.9688 0.500043L11.9723 0.500019C12.0755 0.499306 12.1735 0.535359 12.2481 0.598437C12.3225 0.661238 12.3681 0.745835 12.3805 0.834982L12.3805 0.834984L12.3811 0.839155L12.7202 3.13945L12.7605 3.41281L13.0134 3.52414C13.4539 3.71806 13.8728 3.95492 14.2638 4.231L14.4836 4.38621L14.7342 4.28826L16.9602 3.4183C16.9603 3.41824 16.9604 3.41818 16.9606 3.41813C17.0559 3.38124 17.1624 3.37944 17.2591 3.41326C17.3558 3.44706 17.433 3.51288 17.4791 3.59468L17.479 3.59475L17.4848 3.60466L19.4465 6.90694C19.4467 6.90733 19.447 6.90773 19.4472 6.90813C19.4945 6.98962 19.5099 7.08321 19.4924 7.17304C19.475 7.26258 19.4252 7.34612 19.3482 7.40743L17.4622 8.84409L17.2361 9.01633L17.2684 9.29872C17.2949 9.53049 17.3087 9.76347 17.3095 9.99666C17.3083 10.2304 17.2945 10.4639 17.2683 10.6962ZM10.0011 13.8328H10.8197L10.7795 13.7544C11.5261 13.6063 12.2195 13.2477 12.7687 12.7133C13.5058 11.9962 13.9231 11.0207 13.9244 10.0002V9.99958C13.9244 9.23843 13.6926 8.49551 13.2598 7.86484C12.8271 7.23434 12.2135 6.74491 11.4982 6.45641C10.7829 6.16795 9.99661 6.09267 9.23815 6.23956C8.47963 6.38647 7.78111 6.74938 7.2316 7.28442C6.68195 7.81959 6.30605 8.50309 6.15362 9.24922C6.00117 9.99546 6.07954 10.7688 6.37822 11.4709C6.67682 12.1728 7.18156 12.7705 7.8265 13.1901C8.47131 13.6096 9.22804 13.8328 10.0011 13.8328Z" stroke="#212121"/>
</svg>
